<svg width="341" height="51" viewBox="0 0 341 51" fill="none" xmlns="http://www.w3.org/2000/svg">
<path d="M0.36 0.799997H22.76C26.4187 0.799997 29.1067 1.64 30.824 3.32C32.5413 4.96267 33.4 7.48267 33.4 10.88C33.4 13.12 32.9147 14.9493 31.944 16.368C30.9733 17.7493 29.7787 18.72 28.36 19.28C31.384 20.1013 33.4373 22.1173 34.52 25.328C34.8933 26.4853 35.08 27.8293 35.08 29.36C35.08 33.0187 34.2213 35.7067 32.504 37.424C30.7867 39.1413 28.0987 40 24.44 40H0.36V0.799997ZM25 27.68C25 25.44 23.88 24.32 21.64 24.32H10.44V32.16H21.64C23.88 32.16 25 31.04 25 28.8V27.68ZM23.32 12C23.32 9.76 22.2 8.64 19.96 8.64H10.44V16.48H19.96C22.2 16.48 23.32 15.36 23.32 13.12V12ZM50.1978 40H40.1178V0.799997H50.1978V16.2H55.2378L63.9738 0.799997H74.6138L63.6378 20.12L74.5578 40H63.9178L55.2378 24.04H50.1978V40Z" fill="#FDC900"/>
<path d="M77.9616 0.799997H101.482C105.402 0.799997 108.239 1.696 109.994 3.488C111.786 5.24267 112.682 8.08 112.682 12V17.6C112.682 21.52 111.786 24.376 109.994 26.168C108.239 27.9227 105.402 28.8 101.482 28.8H88.0416V40H77.9616V0.799997ZM102.602 12C102.602 9.76 101.482 8.64 99.2416 8.64H88.0416V20.96H99.2416C101.482 20.96 102.602 19.84 102.602 17.6V12ZM147.399 31.6C147.399 34.4 146.597 36.6027 144.991 38.208C143.423 39.776 141.239 40.56 138.439 40.56H125.559C122.759 40.56 120.557 39.776 118.951 38.208C117.383 36.6027 116.599 34.4 116.599 31.6V18.72C116.599 15.92 117.383 13.736 118.951 12.168C120.557 10.5627 122.759 9.76 125.559 9.76H138.439C141.239 9.76 143.423 10.5627 144.991 12.168C146.597 13.736 147.399 15.92 147.399 18.72V31.6ZM137.599 19.56C137.599 18.0667 136.853 17.32 135.359 17.32H128.639C127.146 17.32 126.399 18.0667 126.399 19.56V30.76C126.399 32.2533 127.146 33 128.639 33H135.359C136.853 33 137.599 32.2533 137.599 30.76V19.56ZM167.553 40C165.051 40.3733 162.662 40.56 160.385 40.56C158.145 40.56 156.259 39.7947 154.729 38.264C153.198 36.7333 152.433 34.6987 152.433 32.16V0.799997H162.233V30.76C162.233 31.32 162.419 31.7867 162.793 32.16C163.166 32.5333 163.633 32.72 164.193 32.72H167.553V40ZM177.062 50.08C175.083 50.08 172.657 49.8933 169.782 49.52V42.24H174.822C176.241 42.24 177.155 41.848 177.566 41.064C178.014 40.28 177.939 39.1787 177.342 37.76L165.862 10.32H176.222L183.222 29.36L189.102 10.32H199.462L188.262 41.12C187.179 44.0693 185.779 46.2907 184.062 47.784C182.345 49.3147 180.011 50.08 177.062 50.08ZM221.039 9.76C224.063 9.76 226.397 10.88 228.039 13.12C229.757 11.9627 231.605 11.1227 233.583 10.6C235.599 10.04 237.391 9.76 238.959 9.76H239.519C242.058 9.76 244.093 10.5253 245.623 12.056C247.154 13.5867 247.919 15.6213 247.919 18.16V40H238.119V19.84C238.119 19.28 237.933 18.8133 237.559 18.44C237.186 18.0667 236.719 17.88 236.159 17.88H235.879C234.199 17.88 232.053 18.2533 229.439 19V40H219.639V19.84C219.639 19.28 219.453 18.8133 219.079 18.44C218.706 18.0667 218.239 17.88 217.679 17.88H217.399C215.719 17.88 213.573 18.2533 210.959 19V40H201.159V10.32H209.839L210.399 13.12C212.154 11.9627 213.946 11.1227 215.775 10.6C217.642 10.04 219.21 9.76 220.479 9.76H221.039ZM264.428 16.76C262.935 16.76 262.188 17.5067 262.188 19V22.08H271.708V19C271.708 17.5067 270.962 16.76 269.468 16.76H264.428ZM280.388 39.44C273.183 40.1867 266.65 40.56 260.788 40.56C258.25 40.56 256.215 39.7947 254.684 38.264C253.154 36.7333 252.388 34.6987 252.388 32.16V18.72C252.388 15.92 253.172 13.736 254.74 12.168C256.346 10.5627 258.548 9.76 261.348 9.76H272.548C275.348 9.76 277.532 10.5627 279.1 12.168C280.706 13.736 281.508 15.92 281.508 18.72V29.08H262.188V31.32C262.188 31.88 262.375 32.3467 262.748 32.72C263.122 33.0933 263.588 33.28 264.148 33.28C267.844 33.28 273.258 33 280.388 32.44V39.44ZM303.607 18.44C301.255 18.44 298.828 19 296.327 20.12V40H286.527V10.32H295.207L295.767 13.96C298.977 11.16 302.337 9.76 305.847 9.76H308.367V18.44H303.607ZM311.164 32.16C318.743 32.72 324.716 33 329.084 33C329.644 33 330.111 32.8133 330.484 32.44C330.858 32.0667 331.044 31.6 331.044 31.04V29.08H319.004C316.466 29.08 314.431 28.3147 312.9 26.784C311.37 25.2533 310.604 23.2187 310.604 20.68V18.72C310.604 16.1813 311.37 14.1467 312.9 12.616C314.431 11.0853 316.466 10.32 319.004 10.32H338.044V17.6H322.364C321.804 17.6 321.338 17.7867 320.964 18.16C320.591 18.5333 320.404 19 320.404 19.56C320.404 20.12 320.591 20.5867 320.964 20.96C321.338 21.3333 321.804 21.52 322.364 21.52H332.444C334.983 21.52 337.018 22.2853 338.548 23.816C340.079 25.3467 340.844 27.3813 340.844 29.92V32.16C340.844 34.6987 340.079 36.7333 338.548 38.264C337.018 39.7947 334.983 40.56 332.444 40.56C325.836 40.56 318.743 40.1867 311.164 39.44V32.16Z" fill="#051829"/>
</svg>
